<svg version="1.2" xmlns="http://www.w3.org/2000/svg" viewBox="0 0 1024 1024" width="500" height="500"><style>.a{fill:#f40b0b}.b{fill:#fbf8f8}</style><path class="a" d="m147.2 338h-53.5v245h33.6v-173.3l28.6 173.3h36.5l26.5-175.7v175.7h36.5v-245h-53.6l-26.2 173.9zm221.5 0h-56.3l-39.2 245h35.3l6.7-44.4h47.2l6.7 44.4h38.8zm-30.1 43.4l18.6 123.9h-37.1zm145.2-43.3h-58.1v245h60.6c38.5 0 58.4-20.3 58.4-58.2v-19.9c0-25.9-8-44.4-28.7-52.5 17.2-8.1 24.9-24.1 24.9-49.3v-8.8c0-37.8-17.2-56.3-57.1-56.3zm-2.4 134.7c17.5 0 24.8 7 24.8 29.8v21.3c0 18.2-7 24.2-19.9 24.2h-22.1v-75.3zm1.4-99.7c13.7 0 19.6 7.7 19.6 25.2v13.6c0 19.6-8.7 25.9-23.1 25.9h-15v-64.7zm120.4 21.3c0-17.5 7.7-24.1 19.9-24.1 12.3 0 20 6.6 20 24.1v132.3c0 17.5-7.7 24.1-20 24.1-12.2 0-19.9-6.6-19.9-24.1zm-38.5 129.9c0 39.1 20.6 61.5 58.4 61.5 37.8 0 58.5-22.4 58.5-61.5v-127.5c0-39.2-20.7-61.5-58.5-61.5-37.8 0-58.4 22.3-58.4 61.5zm229.6 58.8h39.5l-53.5-135.8 53.5-109.2h-38.5l-50.4 106.8v-106.8h-38.5v245h38.5v-75.2l11.9-22.4zm95.6-210h66.5v-35h-105v245h105v-35h-66.5v-71.8h52.8v-35h-52.8z"/><path class="b" d="m829.7 608.8c0 30.3-32.7 35.4-32.7 66.3v12.9h47.7v-15h-31.2c-0.2-0.7-0.2-1.5-0.2-2.2 0-17.3 32.9-29.6 32.9-62.6 0-16.8-8.4-26.4-24.6-26.4-16.2 0-24.6 9.6-24.6 26.4v10.2h15.6v-11.2c0-7.5 3.3-10.4 8.5-10.4 5.3 0 8.6 2.6 8.6 12zm22.8 60.2h31.8v19h16.2v-19h7.8v-15h-7.8v-71h-18l-30 71zm15.1-15l16.7-39.5v39.5zm79.9-39.3c0 8.3-3.7 11.1-9.9 11.1h-6.4v15h5.5c7.5 0 10.8 3.6 10.8 13.3v8.3c0 9.3-3.3 11.8-8.5 11.8-5.3 0-8.6-2.8-8.6-10.3v-9.8h-15.6v8.7c0 16.8 8.4 26.4 24.6 26.4 16.2 0 24.6-9.6 24.6-26.4v-8.3c0-10.6-3.3-18.4-11.5-22 7.9-3.3 11.5-10.3 11.5-21.6v-2.7c0-16.8-8.4-26.4-24.6-26.4-16.2 0-24.6 9.6-24.6 26.4v5.7h15.6v-6.7c0-7.5 3.3-10.4 8.6-10.4 5.2 0 8.5 2.6 8.5 12z"/></svg>